<svg width="23" height="23" viewBox="0 0 23 23" fill="none" xmlns="http://www.w3.org/2000/svg">
<g clip-path="url(#clip0_612_461)">
<path fill-rule="evenodd" clip-rule="evenodd" d="M2.70939 0.734835C2.96091 0.483687 3.26294 0.288862 3.59546 0.16327C3.92797 0.0376783 4.28339 -0.0158125 4.63814 0.00634259C4.99289 0.0284976 5.33888 0.125793 5.65319 0.29178C5.9675 0.457767 6.24294 0.688657 6.46126 0.969147L9.04158 4.28402C9.51451 4.89208 9.68126 5.68415 9.49439 6.43165L8.70808 9.57977C8.66742 9.74283 8.66962 9.91362 8.71445 10.0756C8.75929 10.2375 8.84523 10.3851 8.96395 10.5041L12.4959 14.036C12.615 14.155 12.7628 14.2411 12.9251 14.2859C13.0873 14.3308 13.2584 14.3328 13.4216 14.2919L16.5683 13.5056C16.9372 13.4134 17.3222 13.4062 17.6943 13.4846C18.0664 13.5631 18.4157 13.7251 18.716 13.9584L22.0308 16.5373C23.2225 17.4645 23.3318 19.2254 22.2651 20.2906L20.7788 21.777C19.715 22.8407 18.1251 23.3079 16.6431 22.7861C12.8498 21.4514 9.40565 19.2798 6.5662 16.4323C3.71893 13.5933 1.54732 10.1497 0.21245 6.3569C-0.307925 4.87627 0.159263 3.28496 1.22301 2.22121L2.70939 0.734835Z" fill="black"/>
</g>
<defs>
<clipPath id="clip0_612_461">
<rect width="23" height="23" fill="white"/>
</clipPath>
</defs>
</svg>
