<svg width="286" height="72" viewBox="0 0 286 72" fill="none" xmlns="http://www.w3.org/2000/svg">
<path d="M262.484 64.8399C268.439 65.2799 273.132 65.4999 276.564 65.4999C277.004 65.4999 277.371 65.3533 277.664 65.0599C277.957 64.7666 278.104 64.3999 278.104 63.9599V62.4199H268.644C266.649 62.4199 265.051 61.8186 263.848 60.6159C262.645 59.4133 262.044 57.8146 262.044 55.8199V54.2799C262.044 52.2853 262.645 50.6866 263.848 49.4839C265.051 48.2813 266.649 47.6799 268.644 47.6799H283.604V53.3999H271.284C270.844 53.3999 270.477 53.5466 270.184 53.8399C269.891 54.1333 269.744 54.4999 269.744 54.9399C269.744 55.3799 269.891 55.7466 270.184 56.0399C270.477 56.3333 270.844 56.4799 271.284 56.4799H279.204C281.199 56.4799 282.797 57.0813 284 58.2839C285.203 59.4866 285.804 61.0853 285.804 63.0799V64.8399C285.804 66.8346 285.203 68.4333 284 69.6359C282.797 70.8386 281.199 71.4399 279.204 71.4399C274.012 71.4399 268.439 71.1466 262.484 70.5599V64.8399Z" fill="black"/>
<path d="M256.546 54.06C254.698 54.06 252.791 54.5 250.826 55.38V71H243.126V47.68H249.946L250.386 50.54C252.908 48.34 255.548 47.24 258.306 47.24H260.286V54.06H256.546Z" fill="black"/>
<path d="M225.763 52.74C224.59 52.74 224.003 53.3267 224.003 54.5V56.92H231.483V54.5C231.483 53.3267 230.896 52.74 229.723 52.74H225.763ZM238.303 70.56C232.642 71.1467 227.508 71.44 222.903 71.44C220.908 71.44 219.31 70.8387 218.107 69.636C216.904 68.4333 216.303 66.8347 216.303 64.84V54.28C216.303 52.08 216.919 50.364 218.151 49.132C219.412 47.8707 221.143 47.24 223.343 47.24H232.143C234.343 47.24 236.059 47.8707 237.291 49.132C238.552 50.364 239.183 52.08 239.183 54.28V62.42H224.003V64.18C224.003 64.62 224.15 64.9867 224.443 65.28C224.736 65.5733 225.103 65.72 225.543 65.72C228.447 65.72 232.7 65.5 238.303 65.06V70.56Z" fill="black"/>
<path d="M214.074 70.9999C211.228 71.2932 208.442 71.4399 205.714 71.4399C203.719 71.4399 202.12 70.8386 200.918 69.6359C199.715 68.4332 199.114 66.8346 199.114 64.8399V53.6199H196.474V47.6799H199.114L199.994 42.3999H206.814V47.6799H212.314V53.6199H206.814V63.7399C206.814 64.1799 206.96 64.5466 207.254 64.8399C207.547 65.1332 207.914 65.2799 208.354 65.2799H214.074V70.9999Z" fill="black"/>
<path d="M196.905 46.14C196.054 46.0813 194.925 45.9933 193.517 45.876C192.109 45.7587 190.892 45.7 189.865 45.7C188.838 45.7 188.178 45.8467 187.885 46.14C187.592 46.4333 187.445 46.8 187.445 47.24V49.44H194.705V55.38H187.445V71H179.745V55.38H176.665V49.44H179.745V46.36C179.745 44.3653 180.346 42.7667 181.549 41.564C182.752 40.3613 184.35 39.76 186.345 39.76C188.134 39.76 190.026 39.8187 192.021 39.936C194.016 40.0533 195.644 40.1413 196.905 40.2V46.14Z" fill="black"/>
<path d="M161.057 65.28C162.612 65.28 164.372 64.9867 166.337 64.4V61.76H159.957C159.517 61.76 159.15 61.9067 158.857 62.2C158.564 62.4933 158.417 62.86 158.417 63.3V63.74C158.417 64.18 158.564 64.5467 158.857 64.84C159.15 65.1333 159.517 65.28 159.957 65.28H161.057ZM152.917 48.12C158.285 47.5333 163.125 47.24 167.437 47.24C169.432 47.24 171.03 47.8413 172.233 49.044C173.436 50.2467 174.037 51.8453 174.037 53.84V71H167.217L166.777 68.8C165.398 69.7093 163.976 70.384 162.509 70.824C161.072 71.2347 159.854 71.44 158.857 71.44H157.317C155.322 71.44 153.724 70.8387 152.521 69.636C151.318 68.4333 150.717 66.8347 150.717 64.84V62.86C150.717 60.8653 151.318 59.2667 152.521 58.064C153.724 56.8613 155.322 56.26 157.317 56.26H166.337V54.5C166.337 54.06 166.19 53.6933 165.897 53.4C165.604 53.1067 165.237 52.96 164.797 52.96C162.89 52.96 160.778 53.048 158.461 53.224C156.173 53.4 154.325 53.532 152.917 53.62V48.12Z" fill="black"/>
<path d="M146.761 54.06C144.913 54.06 143.006 54.5 141.041 55.38V71H133.341V47.68H140.161L140.601 50.54C143.123 48.34 145.763 47.24 148.521 47.24H150.501V54.06H146.761Z" fill="black"/>
<path d="M129.829 70.5599C124.344 71.1466 119.504 71.4399 115.309 71.4399C113.315 71.4399 111.716 70.8386 110.513 69.6359C109.311 68.4333 108.709 66.8346 108.709 64.8399V54.7199C108.709 52.5199 109.325 50.8039 110.557 49.5719C111.819 48.3106 113.549 47.6799 115.749 47.6799H129.829V53.6199H118.169C116.996 53.6199 116.409 54.2066 116.409 55.3799V63.9599C116.409 64.3999 116.556 64.7666 116.849 65.0599C117.143 65.3533 117.509 65.4999 117.949 65.4999C120.589 65.4999 124.549 65.2799 129.829 64.8399V70.5599Z" fill="black"/>
<path d="M103.19 54.06C101.342 54.06 99.4357 54.5 97.4703 55.38V71H89.7703V47.68H96.5903L97.0303 50.54C99.553 48.34 102.193 47.24 104.95 47.24H106.93V54.06H103.19Z" fill="black"/>
<path d="M85.3566 48.56V71H77.6566V54.5H74.3566V48.56H85.3566ZM77.6566 39.76H85.3566V45.92H77.6566V39.76Z" fill="black"/>
<path d="M58.7486 65.28C60.3032 65.28 62.0632 64.9867 64.0286 64.4V61.76H57.6486C57.2086 61.76 56.8419 61.9067 56.5486 62.2C56.2552 62.4933 56.1086 62.86 56.1086 63.3V63.74C56.1086 64.18 56.2552 64.5467 56.5486 64.84C56.8419 65.1333 57.2086 65.28 57.6486 65.28H58.7486ZM50.6086 48.12C55.9766 47.5333 60.8166 47.24 65.1286 47.24C67.1232 47.24 68.7219 47.8413 69.9246 49.044C71.1272 50.2467 71.7286 51.8453 71.7286 53.84V71H64.9086L64.4686 68.8C63.0899 69.7093 61.6672 70.384 60.2006 70.824C58.7632 71.2347 57.5459 71.44 56.5486 71.44H55.0086C53.0139 71.44 51.4152 70.8387 50.2126 69.636C49.0099 68.4333 48.4086 66.8347 48.4086 64.84V62.86C48.4086 60.8653 49.0099 59.2667 50.2126 58.064C51.4152 56.8613 53.0139 56.26 55.0086 56.26H64.0286V54.5C64.0286 54.06 63.8819 53.6933 63.5886 53.4C63.2952 53.1067 62.9286 52.96 62.4886 52.96C60.5819 52.96 58.4699 53.048 56.1526 53.224C53.8646 53.4 52.0166 53.532 50.6086 53.62V48.12Z" fill="black"/>
<path d="M47.2691 70.9999C44.4237 71.2932 41.6371 71.4399 38.9091 71.4399C36.9144 71.4399 35.3157 70.8386 34.1131 69.6359C32.9104 68.4332 32.3091 66.8346 32.3091 64.8399V53.6199H29.6691V47.6799H32.3091L33.1891 42.3999H40.0091V47.6799H45.5091V53.6199H40.0091V63.7399C40.0091 64.1799 40.1557 64.5466 40.4491 64.8399C40.7424 65.1332 41.1091 65.2799 41.5491 65.2799H47.2691V70.9999Z" fill="black"/>
<path d="M1.02851 64.62C9.06584 65.06 14.5072 65.28 17.3525 65.28C18.0272 65.28 18.5552 65.0893 18.9365 64.708C19.3472 64.2973 19.5525 63.7546 19.5525 63.08V59.12H9.43251C6.35251 59.12 4.10851 58.4306 2.70051 57.052C1.32184 55.644 0.632507 53.4 0.632507 50.32V49C0.632507 45.92 1.32184 43.6906 2.70051 42.312C4.10851 40.904 6.35251 40.2 9.43251 40.2H24.8765V46.36H11.1925C9.43251 46.36 8.55251 47.24 8.55251 49V49.88C8.55251 51.64 9.43251 52.52 11.1925 52.52H19.1125C21.9872 52.52 24.0992 53.1946 25.4485 54.544C26.7978 55.8933 27.4725 58.0053 27.4725 60.88V63.08C27.4725 65.9546 26.7978 68.0666 25.4485 69.416C24.0992 70.7653 21.9872 71.44 19.1125 71.44C17.6165 71.44 16.0325 71.4106 14.3605 71.352L10.3125 71.176C7.32051 71.0293 4.22584 70.824 1.02851 70.56V64.62Z" fill="#3759B0"/>
<path d="M235.825 14.62C234.27 14.62 232.51 14.9133 230.545 15.5V32H222.845V8.67999H229.665L230.105 10.88C231.483 9.97066 232.891 9.31066 234.329 8.89999C235.795 8.45999 237.027 8.23999 238.025 8.23999H240.005C241.999 8.23999 243.598 8.84132 244.801 10.044C246.003 11.2467 246.605 12.8453 246.605 14.84V32H238.905V16.16C238.905 15.72 238.758 15.3533 238.465 15.06C238.171 14.7667 237.805 14.62 237.365 14.62H235.825Z" fill="black"/>
<path d="M205.917 26.28C207.471 26.28 209.231 25.9867 211.197 25.4V22.76H204.817C204.377 22.76 204.01 22.9067 203.717 23.2C203.423 23.4933 203.277 23.86 203.277 24.3V24.74C203.277 25.18 203.423 25.5467 203.717 25.84C204.01 26.1333 204.377 26.28 204.817 26.28H205.917ZM197.777 9.11999C203.145 8.53332 207.985 8.23999 212.297 8.23999C214.291 8.23999 215.89 8.84132 217.093 10.044C218.295 11.2467 218.897 12.8453 218.897 14.84V32H212.077L211.637 29.8C210.258 30.7093 208.835 31.384 207.369 31.824C205.931 32.2347 204.714 32.44 203.717 32.44H202.177C200.182 32.44 198.583 31.8387 197.381 30.636C196.178 29.4333 195.577 27.8347 195.577 25.84V23.86C195.577 21.8653 196.178 20.2667 197.381 19.064C198.583 17.8613 200.182 17.26 202.177 17.26H211.197V15.5C211.197 15.06 211.05 14.6933 210.757 14.4C210.463 14.1067 210.097 13.96 209.657 13.96C207.75 13.96 205.638 14.048 203.321 14.224C201.033 14.4 199.185 14.532 197.777 14.62V9.11999Z" fill="black"/>
<path d="M193.165 31.5599C187.68 32.1466 182.84 32.4399 178.645 32.4399C176.651 32.4399 175.052 31.8386 173.849 30.6359C172.647 29.4333 172.045 27.8346 172.045 25.8399V15.7199C172.045 13.5199 172.661 11.8039 173.893 10.5719C175.155 9.3106 176.885 8.67993 179.085 8.67993H193.165V14.6199H181.505C180.332 14.6199 179.745 15.2066 179.745 16.3799V24.9599C179.745 25.3999 179.892 25.7666 180.185 26.0599C180.478 26.3533 180.845 26.4999 181.285 26.4999C183.925 26.4999 187.885 26.2799 193.165 25.8399V31.5599Z" fill="black"/>
<path d="M168.071 9.56001V32H160.371V15.5H157.071V9.56001H168.071ZM160.371 0.76001H168.071V6.92001H160.371V0.76001Z" fill="black"/>
<path d="M151.573 15.06C149.725 15.06 147.818 15.5 145.853 16.38V32H138.153V8.67999H144.973L145.413 11.54C147.936 9.33999 150.576 8.23999 153.333 8.23999H155.313V15.06H151.573Z" fill="black"/>
<path d="M120.79 13.74C119.617 13.74 119.03 14.3267 119.03 15.5V17.92H126.51V15.5C126.51 14.3267 125.924 13.74 124.75 13.74H120.79ZM133.33 31.56C127.669 32.1467 122.536 32.44 117.93 32.44C115.936 32.44 114.337 31.8387 113.134 30.636C111.932 29.4333 111.33 27.8347 111.33 25.84V15.28C111.33 13.08 111.946 11.364 113.178 10.132C114.44 8.87066 116.17 8.23999 118.37 8.23999H127.17C129.37 8.23999 131.086 8.87066 132.318 10.132C133.58 11.364 134.21 13.08 134.21 15.28V23.42H119.03V25.18C119.03 25.62 119.177 25.9867 119.47 26.28C119.764 26.5733 120.13 26.72 120.57 26.72C123.474 26.72 127.728 26.5 133.33 26.06V31.56Z" fill="black"/>
<path d="M86.6989 8.23999C89.0749 8.23999 90.9083 9.11999 92.1989 10.88C93.5483 9.97066 95.0003 9.31066 96.5549 8.89999C98.1389 8.45999 99.5469 8.23999 100.779 8.23999H101.219C103.214 8.23999 104.812 8.84132 106.015 10.044C107.218 11.2467 107.819 12.8453 107.819 14.84V32H100.119V16.16C100.119 15.72 99.9723 15.3533 99.6789 15.06C99.3856 14.7667 99.0189 14.62 98.5789 14.62H98.3589C97.0389 14.62 95.3523 14.9133 93.2989 15.5V32H85.5989V16.16C85.5989 15.72 85.4523 15.3533 85.1589 15.06C84.8656 14.7667 84.4989 14.62 84.0589 14.62H83.8389C82.5189 14.62 80.8323 14.9133 78.7789 15.5V32H71.0789V8.67999H77.8989L78.3389 10.88C79.7176 9.97066 81.1256 9.31066 82.5629 8.89999C84.0296 8.45999 85.2616 8.23999 86.2589 8.23999H86.6989Z" fill="black"/>
<path d="M45.7806 32H37.2006L48.8606 1.19995H57.6606L69.3206 32H60.7406L58.7606 26.5H47.7606L45.7806 32ZM49.7406 20.78H56.7806L53.2606 10.44L49.7406 20.78Z" fill="#A80808"/>
</svg>
